name C:\Users\u0150099\Documents\master_thesis\3dpredictsim\Results\debug\Fal_s1_mtjc2_sc_cspx10_oy2_ATx70_MTc2_MTPm_k1_d01_MTJm_nl_MG_exp5_table_d01_PF_Natali2010_x3_ls146_ig21.mot
datacolumns 128
datarows 4
range 0.53063819 0.56247648
endheader
time	pelvis_tilt	pelvis_list	pelvis_rotation	pelvis_tx	pelvis_ty	pelvis_tz	hip_flexion_l	hip_adduction_l	hip_rotation_l	hip_flexion_r	hip_adduction_r	hip_rotation_r	knee_angle_l	knee_angle_r	ankle_angle_l	ankle_angle_r	subtalar_angle_l	subtalar_angle_r	mtj_angle_l	mtj_angle_r	mtp_angle_l	mtp_angle_r	lumbar_extension	lumbar_bending	lumbar_rotation	arm_flex_l	arm_add_l	arm_rot_l	arm_flex_r	arm_add_r	arm_rot_r	elbow_flex_l	elbow_flex_r	pro_sup_l	pro_sup_r	glut_med1_l/activation	glut_med2_l/activation	glut_med3_l/activation	glut_min1_l/activation	glut_min2_l/activation	glut_min3_l/activation	semimem_l/activation	semiten_l/activation	bifemlh_l/activation	bifemsh_l/activation	sar_l/activation	add_long_l/activation	add_brev_l/activation	add_mag1_l/activation	add_mag2_l/activation	add_mag3_l/activation	tfl_l/activation	pect_l/activation	grac_l/activation	glut_max1_l/activation	glut_max2_l/activation	glut_max3_l/activation	iliacus_l/activation	psoas_l/activation	quad_fem_l/activation	gem_l/activation	peri_l/activation	rect_fem_l/activation	vas_med_l/activation	vas_int_l/activation	vas_lat_l/activation	med_gas_l/activation	lat_gas_l/activation	soleus_l/activation	tib_post_l/activation	flex_dig_l/activation	flex_hal_l/activation	tib_ant_l/activation	per_brev_l/activation	per_long_l/activation	per_tert_l/activation	ext_dig_l/activation	ext_hal_l/activation	ercspn_l/activation	intobl_l/activation	extobl_l/activation	glut_med1_r/activation	glut_med2_r/activation	glut_med3_r/activation	glut_min1_r/activation	glut_min2_r/activation	glut_min3_r/activation	semimem_r/activation	semiten_r/activation	bifemlh_r/activation	bifemsh_r/activation	sar_r/activation	add_long_r/activation	add_brev_r/activation	add_mag1_r/activation	add_mag2_r/activation	add_mag3_r/activation	tfl_r/activation	pect_r/activation	grac_r/activation	glut_max1_r/activation	glut_max2_r/activation	glut_max3_r/activation	iliacus_r/activation	psoas_r/activation	quad_fem_r/activation	gem_r/activation	peri_r/activation	rect_fem_r/activation	vas_med_r/activation	vas_int_r/activation	vas_lat_r/activation	med_gas_r/activation	lat_gas_r/activation	soleus_r/activation	tib_post_r/activation	flex_dig_r/activation	flex_hal_r/activation	tib_ant_r/activation	per_brev_r/activation	per_long_r/activation	per_tert_r/activation	ext_dig_r/activation	ext_hal_r/activation	ercspn_r/activation	intobl_r/activation	extobl_r/activation	
          0.53063819	         -2.92792913	          1.37599239	         -2.80596643	          0.70574880	          0.90840839	          0.00350954	         29.46345601	          3.03203727	         -2.46551190	        -15.75607602	          2.18556407	          8.82039987	        -11.44598888	        -11.48333939	          8.85287706	          6.79250811	         -1.96447372	         -1.23390457	          1.55705034	         -1.48640421	         -3.49358905	         17.35523773	         -3.95657155	         -0.49299649	          1.66606051	         -5.15744106	        -13.53532529	          4.99029857	          4.34443152	        -13.77750351	         19.33522150	         27.41039780	         33.24024861	         86.51662706	         86.51662706	          0.06903621	          0.05000012	          0.05884349	          0.05000008	          0.05000011	          0.05000032	          0.29195921	          0.06925233	          0.30709409	          0.06925189	          0.05000162	          0.12385975	          0.15188170	          0.11261627	          0.14321845	          0.14627056	          0.05000081	          0.05002673	          0.11334688	          0.05884342	          0.07820326	          0.11205521	          0.05000016	          0.05000023	          0.16974639	          0.05000038	          0.05000015	          0.05000006	          0.05000049	          0.05000045	          0.05000037	          0.05616286	          0.05000008	          0.05000001	          0.05000008	          0.09591636	          0.05000028	          0.27481074	          0.09190295	          0.12989414	          0.25834247	          0.55817915	          0.24316125	          0.06637508	          0.07804971	          0.10344262	          0.35364341	          0.05884414	          0.05000006	          0.53651838	          0.16947550	          0.07948260	          0.05000080	          0.05000011	          0.05000008	          0.06084619	          0.09589922	          0.05000015	          0.05000012	          0.05000023	          0.05000071	          0.05000040	          0.49591133	          0.05000078	          0.05000028	          0.05000108	          0.05000060	          0.05000046	          0.36576783	          0.78606052	          0.05000006	          0.05000027	          0.05000006	          0.37839990	          0.12297057	          0.13641846	          0.10834849	          0.39415623	          0.47139759	          0.32461732	          0.37596032	          0.33794875	          0.43493601	          0.05000000	          0.06925222	          0.23009721	          0.05000005	          0.05000001	          0.09449277	          0.05000000	          0.05000000	          0.05000000	
          0.54125096	         -2.93002531	          1.44409770	         -3.09308298	          0.72228039	          0.90769900	          0.00330493	         29.10991690	          3.33442883	         -2.39064627	        -16.09548419	          1.86595563	          8.65252924	        -11.57289331	        -12.51839870	          8.45508760	          5.97752706	         -2.04537415	         -0.49367492	          1.79932806	         -2.53408504	         -4.14988890	         20.07982341	         -3.78836182	         -0.65092102	          1.76784521	         -5.85744532	        -13.48086836	          4.33431795	          4.05049470	        -13.74387662	         19.38771541	         26.94027324	         34.37145876	         86.51662706	         86.51662706	          0.05884395	          0.05884397	          0.05000010	          0.05884398	          0.05884398	          0.05884385	          0.25952075	          0.05884408	          0.27159996	          0.05884399	          0.05000013	          0.13358252	          0.20341060	          0.09569073	          0.12169384	          0.15160867	          0.05000006	          0.05349908	          0.09631172	          0.05000021	          0.09035672	          0.16593278	          0.05000040	          0.05000012	          0.29648062	          0.20696783	          0.09911633	          0.05000001	          0.05000003	          0.05000003	          0.05000003	          0.05848598	          0.05245426	          0.05000003	          0.05791229	          0.08150137	          0.08150126	          0.28715761	          0.10739120	          0.14941384	          0.30240578	          0.60257547	          0.31424266	          0.05639923	          0.06631921	          0.08789569	          0.30641149	          0.05000017	          0.05000000	          0.45588241	          0.14400416	          0.06753677	          0.05000092	          0.05000010	          0.05000006	          0.05170133	          0.08148615	          0.09537361	          0.05000075	          0.05000024	          0.05000074	          0.05000064	          0.49383558	          0.05884798	          0.05000012	          0.05000033	          0.05000021	          0.05000020	          0.31079468	          0.73292660	          0.05000001	          0.05000006	          0.05000003	          0.33458291	          0.14314054	          0.14739371	          0.12624687	          0.34459222	          0.40869454	          0.28116487	          0.32830755	          0.34016405	          0.36964414	          0.05000000	          0.05884397	          0.19551470	          0.05000003	          0.05000001	          0.08029097	          0.05000000	          0.05000003	          0.05489751	
          0.55186372	         -2.93007282	          1.52354586	         -3.36824777	          0.73908672	          0.90704985	          0.00307420	         28.76315556	          3.60449695	         -2.30058661	        -16.34578108	          1.51932785	          8.44039123	        -12.38069175	        -13.67370573	          7.65015038	          5.00019126	         -2.09690996	          0.30892734	          1.97713008	         -3.67522763	         -4.66516243	         22.99087422	         -3.60385129	         -0.82049730	          1.86206698	         -6.56995003	        -13.45156418	          3.91365154	          3.67658846	        -13.70251424	         19.33780797	         26.45387125	         35.53616015	         86.51662706	         86.51662706	          0.05000000	          0.05000003	          0.12050626	          0.05000003	          0.05000003	          0.05000005	          0.22051602	          0.05000010	          0.23077978	          0.05000004	          0.06925482	          0.11350713	          0.26670862	          0.31475836	          0.19082113	          0.17751898	          0.05884387	          0.05006610	          0.08183659	          0.05440701	          0.11241529	          0.16406420	          0.06925238	          0.06925245	          0.55158783	          0.17586158	          0.08421964	          0.06925226	          0.10139525	          0.10172296	          0.07902104	          0.06925225	          0.06925231	          0.06925224	          0.05000001	          0.06925226	          0.06925226	          0.34194242	          0.15256611	          0.14413806	          0.45978948	          0.59309606	          0.26701351	          0.05000000	          0.05635175	          0.07468539	          0.26035932	          0.05000040	          0.05745611	          0.38736549	          0.12236104	          0.05738652	          0.05000188	          0.05000022	          0.05000033	          0.05000004	          0.06923931	          0.20048696	          0.07271396	          0.05884414	          0.05884291	          0.05884444	          0.41961508	          0.05001108	          0.05000135	          0.05000396	          0.05000315	          0.05008337	          0.26408373	          0.64682777	          0.05884344	          0.05884381	          0.05000033	          0.29236267	          0.16033406	          0.17184213	          0.15599974	          0.29280165	          0.34726971	          0.23890712	          0.27896450	          0.28903912	          0.31408846	          0.05000000	          0.05000001	          0.16612977	          0.05000001	          0.05000000	          0.06822363	          0.05506019	          0.06822114	          0.05884436	
          0.56247648	         -2.92892939	          1.63406264	         -3.63133781	          0.75610089	          0.90648110	          0.00284846	         28.36042270	          3.80799441	         -2.14878168	        -16.49645577	          1.13548181	          8.18537955	        -13.45644658	        -14.94556400	          6.67703249	          3.81439125	         -2.13318199	          1.11729121	          2.15534829	         -4.88012857	         -4.99191576	         26.05531545	         -3.40662886	         -1.02322562	          1.94697295	         -7.27981165	        -13.45218924	          3.70876740	          3.23390227	        -13.65699681	         19.23750503	         25.94148586	         36.73812462	         86.51662706	         86.51662706	          0.33546096	          0.34403062	          0.41632699	          0.39671565	          0.28293267	          0.26089950	          0.18737355	          0.12651045	          0.19783750	          0.08150231	          0.05884623	          0.09644761	          0.22662401	          0.26745173	          0.16214174	          0.23666905	          0.05000017	          0.05886382	          0.19236520	          0.05000006	          0.20403760	          0.23544189	          0.05884412	          0.05884415	          0.46868681	          0.14943047	          0.12056368	          0.05884397	          0.08615603	          0.08643449	          0.06714456	          0.05884396	          0.05884402	          0.05884396	          0.06522105	          0.05884399	          0.05884399	          0.41368209	          0.12963616	          0.12792664	          0.39068533	          0.76169850	          0.57072975	          0.07596179	          0.09591963	          0.06346053	          0.24647181	          0.05000001	          0.05000000	          0.34782380	          0.10397079	          0.05000003	          0.05000057	          0.05000008	          0.05000004	          0.05002132	          0.05884423	          0.20765719	          0.06178553	          0.05000028	          0.05000027	          0.05000053	          0.48662719	          0.06925194	          0.05000012	          0.05000021	          0.05000011	          0.05000008	          0.22439321	          0.70192884	          0.05000000	          0.05000004	          0.05000000	          0.24842196	          0.13623663	          0.14601509	          0.13255374	          0.24879495	          0.29507673	          0.20300052	          0.23703746	          0.24559794	          0.26688248	          0.08811426	          0.09642531	          0.14116127	          0.05000005	          0.05000004	          0.05796995	          0.08210097	          0.05796782	          0.05000035	
